<mxfile host="Electron" modified="2024-05-02T04:21:43.729Z" agent="Mozilla/5.0 (Macintosh; Intel Mac OS X 10_15_7) AppleWebKit/537.36 (KHTML, like Gecko) draw.io/24.2.5 Chrome/120.0.6099.109 Electron/28.1.0 Safari/537.36" etag="OigfIKNlA7U7Tidgoyb3" version="24.2.5" type="device">
  <diagram name="第 1 页" id="BL3kUPIIXOaZCsNuidUX">
    <mxGraphModel dx="750" dy="664" grid="1" gridSize="10" guides="1" tooltips="1" connect="1" arrows="1" fold="1" page="1" pageScale="1" pageWidth="827" pageHeight="1169" math="0" shadow="0">
      <root>
        <mxCell id="0" />
        <mxCell id="1" parent="0" />
        <mxCell id="9ZFRUbQj5B5Qgh5XwVyR-1" value="" style="rounded=1;whiteSpace=wrap;html=1;fillColor=#fff2cc;strokeColor=#d6b656;" vertex="1" parent="1">
          <mxGeometry x="420" y="620" width="160" height="240" as="geometry" />
        </mxCell>
        <mxCell id="9ZFRUbQj5B5Qgh5XwVyR-2" value="" style="rounded=1;whiteSpace=wrap;html=1;fillColor=#b0e3e6;strokeColor=#0e8088;" vertex="1" parent="1">
          <mxGeometry x="420" y="140" width="160" height="240" as="geometry" />
        </mxCell>
        <mxCell id="9ZFRUbQj5B5Qgh5XwVyR-3" style="edgeStyle=orthogonalEdgeStyle;rounded=0;orthogonalLoop=1;jettySize=auto;html=1;exitX=0.5;exitY=1;exitDx=0;exitDy=0;entryX=0.5;entryY=0;entryDx=0;entryDy=0;" edge="1" parent="1" source="9ZFRUbQj5B5Qgh5XwVyR-4" target="9ZFRUbQj5B5Qgh5XwVyR-65">
          <mxGeometry relative="1" as="geometry" />
        </mxCell>
        <mxCell id="9ZFRUbQj5B5Qgh5XwVyR-4" value="汇编入口" style="rounded=1;whiteSpace=wrap;html=1;fillColor=#d5e8d4;strokeColor=#82b366;" vertex="1" parent="1">
          <mxGeometry x="80" y="240" width="120" height="40" as="geometry" />
        </mxCell>
        <mxCell id="9ZFRUbQj5B5Qgh5XwVyR-21" style="edgeStyle=orthogonalEdgeStyle;rounded=0;orthogonalLoop=1;jettySize=auto;html=1;exitX=0.5;exitY=1;exitDx=0;exitDy=0;" edge="1" parent="1" source="9ZFRUbQj5B5Qgh5XwVyR-22" target="9ZFRUbQj5B5Qgh5XwVyR-24">
          <mxGeometry relative="1" as="geometry" />
        </mxCell>
        <mxCell id="9ZFRUbQj5B5Qgh5XwVyR-22" value="信号处理" style="rounded=0;whiteSpace=wrap;html=1;fillColor=#bac8d3;strokeColor=#23445d;" vertex="1" parent="1">
          <mxGeometry x="80" y="560" width="120" height="40" as="geometry" />
        </mxCell>
        <mxCell id="9ZFRUbQj5B5Qgh5XwVyR-23" style="edgeStyle=orthogonalEdgeStyle;rounded=0;orthogonalLoop=1;jettySize=auto;html=1;exitX=0.5;exitY=1;exitDx=0;exitDy=0;entryX=0.5;entryY=0;entryDx=0;entryDy=0;" edge="1" parent="1" source="9ZFRUbQj5B5Qgh5XwVyR-24" target="9ZFRUbQj5B5Qgh5XwVyR-25">
          <mxGeometry relative="1" as="geometry" />
        </mxCell>
        <mxCell id="9ZFRUbQj5B5Qgh5XwVyR-24" value="寄存器弹出" style="rounded=0;whiteSpace=wrap;html=1;fillColor=#dae8fc;strokeColor=#6c8ebf;" vertex="1" parent="1">
          <mxGeometry x="80" y="640" width="120" height="40" as="geometry" />
        </mxCell>
        <mxCell id="9ZFRUbQj5B5Qgh5XwVyR-25" value="汇编返回" style="rounded=1;whiteSpace=wrap;html=1;fillColor=#ffe6cc;strokeColor=#d79b00;" vertex="1" parent="1">
          <mxGeometry x="80" y="720" width="120" height="40" as="geometry" />
        </mxCell>
        <mxCell id="9ZFRUbQj5B5Qgh5XwVyR-26" style="edgeStyle=orthogonalEdgeStyle;rounded=0;orthogonalLoop=1;jettySize=auto;html=1;exitX=0.5;exitY=1;exitDx=0;exitDy=0;" edge="1" parent="1" source="9ZFRUbQj5B5Qgh5XwVyR-27" target="9ZFRUbQj5B5Qgh5XwVyR-22">
          <mxGeometry relative="1" as="geometry" />
        </mxCell>
        <mxCell id="9ZFRUbQj5B5Qgh5XwVyR-27" value="ret_from_sys_call" style="ellipse;whiteSpace=wrap;html=1;fillColor=#f8cecc;strokeColor=#b85450;" vertex="1" parent="1">
          <mxGeometry x="80" y="480" width="120" height="40" as="geometry" />
        </mxCell>
        <mxCell id="9ZFRUbQj5B5Qgh5XwVyR-36" style="edgeStyle=orthogonalEdgeStyle;rounded=0;orthogonalLoop=1;jettySize=auto;html=1;exitX=0.5;exitY=1;exitDx=0;exitDy=0;" edge="1" parent="1" source="9ZFRUbQj5B5Qgh5XwVyR-37" target="9ZFRUbQj5B5Qgh5XwVyR-44">
          <mxGeometry relative="1" as="geometry" />
        </mxCell>
        <mxCell id="9ZFRUbQj5B5Qgh5XwVyR-37" value="汇编入口" style="rounded=1;whiteSpace=wrap;html=1;fillColor=#d5e8d4;strokeColor=#82b366;" vertex="1" parent="1">
          <mxGeometry x="440" y="160" width="120" height="40" as="geometry" />
        </mxCell>
        <mxCell id="9ZFRUbQj5B5Qgh5XwVyR-43" style="edgeStyle=orthogonalEdgeStyle;rounded=0;orthogonalLoop=1;jettySize=auto;html=1;exitX=0.5;exitY=1;exitDx=0;exitDy=0;" edge="1" parent="1" source="9ZFRUbQj5B5Qgh5XwVyR-44" target="9ZFRUbQj5B5Qgh5XwVyR-61">
          <mxGeometry relative="1" as="geometry" />
        </mxCell>
        <mxCell id="9ZFRUbQj5B5Qgh5XwVyR-44" value="寄存器入栈" style="rounded=0;whiteSpace=wrap;html=1;fillColor=#dae8fc;strokeColor=#6c8ebf;" vertex="1" parent="1">
          <mxGeometry x="440" y="240" width="120" height="40" as="geometry" />
        </mxCell>
        <mxCell id="9ZFRUbQj5B5Qgh5XwVyR-53" style="edgeStyle=orthogonalEdgeStyle;rounded=0;orthogonalLoop=1;jettySize=auto;html=1;exitX=0.5;exitY=1;exitDx=0;exitDy=0;entryX=0.5;entryY=0;entryDx=0;entryDy=0;" edge="1" parent="1" source="9ZFRUbQj5B5Qgh5XwVyR-54" target="9ZFRUbQj5B5Qgh5XwVyR-59">
          <mxGeometry relative="1" as="geometry" />
        </mxCell>
        <mxCell id="9ZFRUbQj5B5Qgh5XwVyR-54" value="信号处理" style="rounded=0;whiteSpace=wrap;html=1;fillColor=#bac8d3;strokeColor=#23445d;" vertex="1" parent="1">
          <mxGeometry x="440" y="560" width="120" height="40" as="geometry" />
        </mxCell>
        <mxCell id="9ZFRUbQj5B5Qgh5XwVyR-55" style="edgeStyle=orthogonalEdgeStyle;rounded=0;orthogonalLoop=1;jettySize=auto;html=1;exitX=0.5;exitY=1;exitDx=0;exitDy=0;entryX=0.5;entryY=0;entryDx=0;entryDy=0;" edge="1" parent="1" source="9ZFRUbQj5B5Qgh5XwVyR-56" target="9ZFRUbQj5B5Qgh5XwVyR-57">
          <mxGeometry relative="1" as="geometry" />
        </mxCell>
        <mxCell id="9ZFRUbQj5B5Qgh5XwVyR-56" value="寄存器弹出" style="rounded=0;whiteSpace=wrap;html=1;fillColor=#dae8fc;strokeColor=#6c8ebf;" vertex="1" parent="1">
          <mxGeometry x="440" y="720" width="120" height="40" as="geometry" />
        </mxCell>
        <mxCell id="9ZFRUbQj5B5Qgh5XwVyR-57" value="汇编返回" style="rounded=1;whiteSpace=wrap;html=1;fillColor=#ffe6cc;strokeColor=#d79b00;" vertex="1" parent="1">
          <mxGeometry x="440" y="800" width="120" height="40" as="geometry" />
        </mxCell>
        <mxCell id="9ZFRUbQj5B5Qgh5XwVyR-58" style="edgeStyle=orthogonalEdgeStyle;rounded=0;orthogonalLoop=1;jettySize=auto;html=1;exitX=0.5;exitY=1;exitDx=0;exitDy=0;entryX=0.5;entryY=0;entryDx=0;entryDy=0;" edge="1" parent="1" source="9ZFRUbQj5B5Qgh5XwVyR-59" target="9ZFRUbQj5B5Qgh5XwVyR-56">
          <mxGeometry relative="1" as="geometry" />
        </mxCell>
        <mxCell id="9ZFRUbQj5B5Qgh5XwVyR-59" value="ret_from_exception" style="ellipse;whiteSpace=wrap;html=1;fillColor=#f8cecc;strokeColor=#b85450;" vertex="1" parent="1">
          <mxGeometry x="440" y="640" width="120" height="40" as="geometry" />
        </mxCell>
        <mxCell id="9ZFRUbQj5B5Qgh5XwVyR-76" style="edgeStyle=orthogonalEdgeStyle;rounded=0;orthogonalLoop=1;jettySize=auto;html=1;exitX=0.5;exitY=1;exitDx=0;exitDy=0;entryX=0.5;entryY=0;entryDx=0;entryDy=0;" edge="1" parent="1" source="9ZFRUbQj5B5Qgh5XwVyR-61" target="9ZFRUbQj5B5Qgh5XwVyR-74">
          <mxGeometry relative="1" as="geometry" />
        </mxCell>
        <mxCell id="9ZFRUbQj5B5Qgh5XwVyR-61" value="设置返回点为&lt;div&gt;ret_from_exception&lt;br&gt;&lt;/div&gt;" style="rounded=0;whiteSpace=wrap;html=1;fillColor=#fad9d5;strokeColor=#ae4132;" vertex="1" parent="1">
          <mxGeometry x="440" y="320" width="120" height="40" as="geometry" />
        </mxCell>
        <mxCell id="9ZFRUbQj5B5Qgh5XwVyR-68" style="edgeStyle=orthogonalEdgeStyle;rounded=0;orthogonalLoop=1;jettySize=auto;html=1;exitX=0.5;exitY=1;exitDx=0;exitDy=0;entryX=0.5;entryY=0;entryDx=0;entryDy=0;" edge="1" parent="1" source="9ZFRUbQj5B5Qgh5XwVyR-65" target="9ZFRUbQj5B5Qgh5XwVyR-66">
          <mxGeometry relative="1" as="geometry" />
        </mxCell>
        <mxCell id="9ZFRUbQj5B5Qgh5XwVyR-65" value="timer_interrupt" style="ellipse;whiteSpace=wrap;html=1;" vertex="1" parent="1">
          <mxGeometry x="80" y="320" width="120" height="40" as="geometry" />
        </mxCell>
        <mxCell id="9ZFRUbQj5B5Qgh5XwVyR-69" style="edgeStyle=orthogonalEdgeStyle;rounded=0;orthogonalLoop=1;jettySize=auto;html=1;exitX=0.5;exitY=1;exitDx=0;exitDy=0;entryX=0.5;entryY=0;entryDx=0;entryDy=0;" edge="1" parent="1" source="9ZFRUbQj5B5Qgh5XwVyR-66" target="9ZFRUbQj5B5Qgh5XwVyR-27">
          <mxGeometry relative="1" as="geometry" />
        </mxCell>
        <mxCell id="9ZFRUbQj5B5Qgh5XwVyR-66" value="do_timer" style="rounded=0;whiteSpace=wrap;html=1;" vertex="1" parent="1">
          <mxGeometry x="80" y="400" width="120" height="40" as="geometry" />
        </mxCell>
        <mxCell id="9ZFRUbQj5B5Qgh5XwVyR-77" style="edgeStyle=orthogonalEdgeStyle;rounded=0;orthogonalLoop=1;jettySize=auto;html=1;exitX=0.5;exitY=1;exitDx=0;exitDy=0;entryX=0.5;entryY=0;entryDx=0;entryDy=0;" edge="1" parent="1" source="9ZFRUbQj5B5Qgh5XwVyR-73" target="9ZFRUbQj5B5Qgh5XwVyR-54">
          <mxGeometry relative="1" as="geometry" />
        </mxCell>
        <mxCell id="9ZFRUbQj5B5Qgh5XwVyR-73" value="do_timer" style="rounded=0;whiteSpace=wrap;html=1;" vertex="1" parent="1">
          <mxGeometry x="440" y="480" width="120" height="40" as="geometry" />
        </mxCell>
        <mxCell id="9ZFRUbQj5B5Qgh5XwVyR-75" style="edgeStyle=orthogonalEdgeStyle;rounded=0;orthogonalLoop=1;jettySize=auto;html=1;entryX=0.5;entryY=0;entryDx=0;entryDy=0;" edge="1" parent="1" source="9ZFRUbQj5B5Qgh5XwVyR-74" target="9ZFRUbQj5B5Qgh5XwVyR-73">
          <mxGeometry relative="1" as="geometry" />
        </mxCell>
        <mxCell id="9ZFRUbQj5B5Qgh5XwVyR-74" value="do_irq" style="rounded=0;whiteSpace=wrap;html=1;" vertex="1" parent="1">
          <mxGeometry x="440" y="400" width="120" height="40" as="geometry" />
        </mxCell>
      </root>
    </mxGraphModel>
  </diagram>
</mxfile>
